<svg width="192" height="20" viewBox="0 0 192 20" fill="none" xmlns="http://www.w3.org/2000/svg">
<g clip-path="url(#clip0_311_5752)">
<path d="M0.19927 3.47907C0.0472627 3.26676 -0.0221365 2.99704 0.0062138 2.72873C0.034564 2.46043 0.158363 2.21533 0.350599 2.04692C1.36402 1.22701 2.51536 0.635935 3.73805 0.30787C5.61221 -0.203613 8.52241 -0.331484 11.6886 1.98298C16.6244 5.60173 20.6753 2.18757 20.8383 2.03413C21.0345 1.86959 21.2812 1.79499 21.5265 1.82598C21.7718 1.85698 21.9965 1.99116 22.1536 2.20036C22.3057 2.41267 22.3751 2.6824 22.3467 2.9507C22.3184 3.219 22.1946 3.4641 22.0024 3.63252C20.9889 4.45242 19.8376 5.0435 18.6149 5.37156C17.8648 5.57672 17.0946 5.67979 16.3216 5.67845C14.6919 5.67845 12.7364 5.20533 10.6643 3.69645C5.72861 0.0777023 1.67764 3.49186 1.51467 3.64531C1.31841 3.80984 1.07174 3.88445 0.826465 3.85345C0.581193 3.82245 0.356392 3.68826 0.19927 3.47907ZM20.8383 9.19488C20.6753 9.34835 16.6244 12.7625 11.6886 9.14377C8.52241 6.82929 5.61221 6.95718 3.73805 7.46865C2.51536 7.79671 1.36402 8.38776 0.350599 9.20771C0.158363 9.37612 0.034564 9.62118 0.0062138 9.88953C-0.0221365 10.1578 0.0472627 10.4275 0.19927 10.6398C0.356392 10.8491 0.581193 10.9832 0.826465 11.0142C1.07174 11.0452 1.31841 10.9706 1.51467 10.8061C1.67764 10.6526 5.72861 7.23847 10.6643 10.8572C12.7364 12.3661 14.6919 12.8392 16.3216 12.8392C17.0946 12.8406 17.8648 12.7375 18.6149 12.5324C19.8376 12.2043 20.9889 11.6132 22.0024 10.7933C22.1946 10.6249 22.3184 10.3798 22.3467 10.1115C22.3751 9.84318 22.3057 9.57347 22.1536 9.36112C21.9965 9.15194 21.7718 9.01777 21.5265 8.98676C21.2812 8.95576 21.0345 9.03035 20.8383 9.19488ZM20.8383 16.3556C20.6753 16.5091 16.6244 19.9233 11.6886 16.3045C8.52241 13.9901 5.61221 14.1179 3.73805 14.6294C2.51536 14.9575 1.36402 15.5485 0.350599 16.3685C0.158363 16.5369 0.034564 16.782 0.0062138 17.0503C-0.0221365 17.3186 0.0472627 17.5883 0.19927 17.8006C0.356392 18.0098 0.581193 18.144 0.826465 18.175C1.07174 18.206 1.31841 18.1314 1.51467 17.9669C1.67764 17.8134 5.72861 14.3992 10.6643 18.018C12.7364 19.5269 14.6919 20 16.3216 20C18.365 19.9984 20.3548 19.2818 22.0024 17.9541C22.1946 17.7856 22.3184 17.5405 22.3467 17.2722C22.3751 17.0039 22.3057 16.7342 22.1536 16.5219C21.9965 16.3127 21.7718 16.1785 21.5265 16.1475C21.2812 16.1165 21.0345 16.1911 20.8383 16.3556Z" fill="#3CBADE"/>
</g>
<path d="M37.416 15.208C35.7307 15.208 34.3333 14.6533 33.224 13.544C32.1147 12.424 31.56 11.0427 31.56 9.4C31.56 7.75733 32.1147 6.38133 33.224 5.272C34.3333 4.152 35.7307 3.592 37.416 3.592C38.4293 3.592 39.3627 3.832 40.216 4.312C41.08 4.792 41.752 5.44267 42.232 6.264L40.632 7.192C40.3333 6.63733 39.896 6.2 39.32 5.88C38.7547 5.54933 38.12 5.384 37.416 5.384C36.2213 5.384 35.2507 5.76267 34.504 6.52C33.768 7.27733 33.4 8.23733 33.4 9.4C33.4 10.5627 33.768 11.5227 34.504 12.28C35.2507 13.0373 36.2213 13.416 37.416 13.416C38.12 13.416 38.76 13.256 39.336 12.936C39.912 12.6053 40.344 12.1627 40.632 11.608L42.232 12.52C41.7627 13.3413 41.096 13.9973 40.232 14.488C39.3787 14.968 38.44 15.208 37.416 15.208ZM49.8303 3.8H51.6863L48.2143 12.12C47.3609 14.1573 45.9796 15.1173 44.0703 15V13.288C44.6996 13.352 45.2063 13.256 45.5903 13C45.9849 12.744 46.2996 12.3173 46.5343 11.72L42.8063 3.8H44.6623L47.3823 9.704L49.8303 3.8ZM60.2438 3.8V5.56H57.0918V15H55.2518V5.56H52.0838V3.8H60.2438ZM70.0524 15H67.8604L63.4444 9.672V15H61.6044V3.8H63.4444V8.824L67.7004 3.8H69.8924L65.3644 9.256L70.0524 15ZM77.965 15V7.4L72.685 15H71.245V3.8H73.085V11.4L78.365 3.8H79.805V15H77.965ZM92.6819 3.8H94.5219V15H92.6819V10.152H87.8819V15H86.0419V3.8H87.8819V8.392H92.6819V3.8ZM104.057 15L103.273 12.744H98.5046L97.7206 15H95.7206L99.7846 3.8H101.993L106.041 15H104.057ZM99.1126 11.016H102.665L100.889 5.96L99.1126 11.016Z" fill="#303030"/>
<path d="M121.965 3.8V15H120.125V7.016L116.717 12.648H116.493L113.085 7V15H111.245V3.8H113.229L116.605 9.4L119.997 3.8H121.965ZM133.558 13.528C132.438 14.648 131.067 15.208 129.446 15.208C127.825 15.208 126.449 14.648 125.318 13.528C124.198 12.3973 123.638 11.0213 123.638 9.4C123.638 7.77867 124.198 6.408 125.318 5.288C126.449 4.15733 127.825 3.592 129.446 3.592C131.067 3.592 132.438 4.15733 133.558 5.288C134.689 6.408 135.254 7.77867 135.254 9.4C135.254 11.0213 134.689 12.3973 133.558 13.528ZM126.614 12.28C127.382 13.0373 128.326 13.416 129.446 13.416C130.566 13.416 131.505 13.0373 132.262 12.28C133.03 11.512 133.414 10.552 133.414 9.4C133.414 8.248 133.03 7.29333 132.262 6.536C131.505 5.768 130.566 5.384 129.446 5.384C128.326 5.384 127.382 5.768 126.614 6.536C125.857 7.29333 125.478 8.248 125.478 9.4C125.478 10.552 125.857 11.512 126.614 12.28ZM141.061 3.8C142.117 3.8 142.997 4.152 143.701 4.856C144.415 5.56 144.773 6.43467 144.773 7.48C144.773 8.51467 144.415 9.38933 143.701 10.104C142.997 10.808 142.117 11.16 141.061 11.16H138.773V15H136.933V3.8H141.061ZM141.061 9.432C141.605 9.432 142.053 9.25067 142.405 8.888C142.757 8.51467 142.933 8.04533 142.933 7.48C142.933 6.91467 142.757 6.45067 142.405 6.088C142.053 5.71467 141.605 5.528 141.061 5.528H138.773V9.432H141.061ZM148.21 13.24H153.17V15H146.37V3.8H153.09V5.56H148.21V8.472H152.69V10.216H148.21V13.24ZM156.63 14.84C156.396 15.0747 156.113 15.192 155.782 15.192C155.452 15.192 155.169 15.0747 154.934 14.84C154.7 14.6053 154.582 14.3227 154.582 13.992C154.582 13.6613 154.694 13.3787 154.918 13.144C155.153 12.9093 155.441 12.792 155.782 12.792C156.113 12.792 156.396 12.9093 156.63 13.144C156.865 13.3787 156.982 13.6613 156.982 13.992C156.982 14.3227 156.865 14.6053 156.63 14.84ZM163.061 3.8C164.117 3.8 164.997 4.152 165.701 4.856C166.415 5.56 166.773 6.43467 166.773 7.48C166.773 8.51467 166.415 9.38933 165.701 10.104C164.997 10.808 164.117 11.16 163.061 11.16H160.773V15H158.933V3.8H163.061ZM163.061 9.432C163.605 9.432 164.053 9.25067 164.405 8.888C164.757 8.51467 164.933 8.04533 164.933 7.48C164.933 6.91467 164.757 6.45067 164.405 6.088C164.053 5.71467 163.605 5.528 163.061 5.528H160.773V9.432H163.061ZM174.19 3.8H176.046L172.574 12.12C171.72 14.1573 170.339 15.1173 168.43 15V13.288C169.059 13.352 169.566 13.256 169.95 13C170.344 12.744 170.659 12.3173 170.894 11.72L167.166 3.8H169.022L171.742 9.704L174.19 3.8Z" fill="#3CBADE"/>
<defs>
<clipPath id="clip0_311_5752">
<rect width="22.3529" height="20" fill="white"/>
</clipPath>
</defs>
</svg>
