<svg width="24" height="24" viewBox="0 0 24 24" fill="none" xmlns="http://www.w3.org/2000/svg">
<g clip-path="url(#clip0_6224_1916)">
<path d="M22.5 11.2546V4.24219C22.5 2.31014 20.9281 0.738281 18.9961 0.738281H4.91016C2.97811 0.738281 1.40625 2.31014 1.40625 4.24219V11.3226C0.552656 11.9693 0 12.9935 0 14.1445V23.2617H4.21875V20.4961H19.7812V23.2617H24V14.1445C24 12.952 23.4065 11.8961 22.5 11.2546ZM1.40625 17.6367H22.5938V19.0898H1.40625V17.6367ZM11.25 10.6055H4.21875V10.2539C4.21875 9.4785 4.84959 8.84766 5.625 8.84766H9.84375C10.6192 8.84766 11.25 9.4785 11.25 10.2539V10.6055ZM19.6875 10.6055H12.6562V10.2539C12.6562 9.4785 13.2871 8.84766 14.0625 8.84766H18.2812C19.0567 8.84766 19.6875 9.4785 19.6875 10.2539V10.6055ZM2.8125 4.24219C2.8125 3.08555 3.75352 2.14453 4.91016 2.14453H18.9961C20.1527 2.14453 21.0938 3.08555 21.0938 4.24219V10.2539C21.0938 8.70309 19.8321 7.44141 18.2812 7.44141H14.0625C13.2231 7.44141 12.4689 7.81153 11.9531 8.39658C11.4374 7.81153 10.6832 7.44141 9.84375 7.44141H5.625C4.07419 7.44141 2.8125 8.70309 2.8125 10.2539V4.24219ZM3.53906 12.0117H20.4609C21.637 12.0117 22.5938 12.9685 22.5938 14.1445V16.2305H1.40625V14.1445C1.40625 12.9685 2.36302 12.0117 3.53906 12.0117ZM2.8125 21.8555H1.40625V20.4961H2.8125V21.8555ZM22.5938 21.8555H21.1875V20.4961H22.5938V21.8555Z" fill="#303030"/>
</g>
<defs>
<clipPath id="clip0_6224_1916">
<rect width="24" height="24" fill="white"/>
</clipPath>
</defs>
</svg>
