<svg width="30" height="30" viewBox="0 0 30 30" fill="none" xmlns="http://www.w3.org/2000/svg">
<g clip-path="url(#clip0_6224_1927)">
<path d="M27.6562 16.4998V14.0308C27.6562 12.2219 26.1844 10.7495 24.375 10.7495H21.5625V7.90798C21.5625 7.08954 21.1383 6.34938 20.4277 5.92704C19.7016 5.49673 18.8255 5.48079 18.0994 5.87735L17.3438 6.25376V4.72563C17.3438 3.75673 16.8075 2.9111 15.9445 2.51969C15.1148 2.14376 14.1703 2.28626 13.4798 2.89141L4.51125 10.7495H4.21875C2.40938 10.7495 0.9375 12.2219 0.9375 14.0308V26.2183C0.9375 28.0272 2.40938 29.4995 4.21875 29.4995H24.375C26.1844 29.4995 27.6562 28.0272 27.6562 26.2183V23.6263C28.9486 23.6263 30 22.3544 30 21.062V19.187C30 17.8947 28.9486 16.4998 27.6562 16.4998ZM18.5 6.99976C18.9477 6.75554 19.5613 6.73913 20 6.99976C20.4233 7.25101 20.4277 7.42329 20.4277 7.90798V10.7495H10.4278L18.5 6.99976ZM14.0977 3.59641C14.5139 3.23173 15.0595 3.14782 15.5573 3.37376C15.9675 3.55985 16.4062 4.01266 16.4062 4.72563V6.7211L8.32734 10.7495H5.93391L14.0977 3.59641ZM26.2709 26.2183C26.2709 27.5106 25.6673 27.9683 24.375 27.9683H4.21875C3 27.9683 2.5 27.5106 2.5 26.2183V14.0308C2.5 12.7384 2.92641 12.3381 4.21875 12.3381H24.375C25.6673 12.3381 26.2709 12.7384 26.2709 14.0308V16.4998H22.0312C19.6875 16.4998 19.5 19.3131 19.5 20.1245C19.5 20.9359 19.6875 23.6263 22.0312 23.6263H26.2709V26.2183ZM28.8075 21.062C28.8075 21.8374 28.4316 22.4683 27.6562 22.4683H22.0312C21.187 22.4683 20.625 22.0694 20.625 20.1245C20.625 18.1797 21.187 17.7808 22.0312 17.7808H27.6562C28.4316 17.7808 28.8075 18.4117 28.8075 19.187V21.062Z" fill="#303030"/>
<path d="M22.9688 18.2812C21.9347 18.2812 21.0938 19.1222 21.0938 20.1562C21.0938 21.1903 21.9347 22.0312 22.9688 22.0312C24.0028 22.0312 24.8438 21.1903 24.8438 20.1562C24.8438 19.1222 24.0028 18.2812 22.9688 18.2812ZM22.9688 21.0938C22.4517 21.0938 22.0312 20.6733 22.0312 20.1562C22.0312 19.6392 22.4517 19.2188 22.9688 19.2188C23.4858 19.2188 23.9062 19.6392 23.9062 20.1562C23.9062 20.6733 23.4858 21.0938 22.9688 21.0938Z" fill="#303030"/>
<path d="M23.0203 7.85969L22.7274 8.03547C22.5933 8.11609 22.5085 8.25766 22.5005 8.41328C22.4925 8.56938 22.5624 8.71891 22.6871 8.81266L24.5621 10.2189C24.645 10.2813 24.7444 10.3127 24.8433 10.3127C24.9338 10.3127 25.0242 10.2864 25.1035 10.2339L25.186 10.1791C26.8955 9.03906 27.9652 7.18703 28.1081 5.15641H28.725C29.0494 5.15641 29.3391 4.96281 29.4628 4.66328C29.5814 4.37641 29.5247 4.05109 29.3185 3.82281L27.1781 0.94375C26.9555 0.644219 26.6138 0.472656 26.2411 0.472656C25.868 0.473125 25.5263 0.644688 25.3041 0.944688L23.1769 3.80875C22.9688 4.03891 22.9106 4.3675 23.0306 4.65766C23.1558 4.96047 23.4488 5.15594 23.7764 5.15594H24.4271C24.5035 6.23781 23.9677 7.29109 23.0203 7.85969ZM25.3121 4.68625C25.3097 4.63516 25.2989 4.58313 25.2783 4.53297L25.2694 4.51141C25.2694 4.51094 25.2689 4.51094 25.2689 4.51047C25.2267 4.40594 25.1503 4.32484 25.058 4.27469C24.9656 4.22453 25.058 4.27422 25.0575 4.27422C25.0313 4.26063 25.0036 4.24844 24.9755 4.24C24.9277 4.225 24.8766 4.22031 24.826 4.21844H24.0403L26.0569 1.50297C26.1164 1.42234 26.198 1.41016 26.2411 1.41016C26.2842 1.41016 26.3658 1.42234 26.4263 1.50297L28.4456 4.21844H27.6563C27.3975 4.21844 27.1875 4.42797 27.1875 4.68719C27.1875 6.50734 26.3199 8.20234 24.8555 9.26688L23.7938 8.47C24.9727 7.60797 25.5708 6.13797 25.3121 4.68625Z" fill="#303030"/>
</g>
<defs>
<clipPath id="clip0_6224_1927">
<rect width="30" height="30" fill="white"/>
</clipPath>
</defs>
</svg>
