<svg width="16" height="16" viewBox="0 0 16 16" fill="none" xmlns="http://www.w3.org/2000/svg">
<path d="M14 2H2C0.8955 2 0 2.8955 0 4V12C0 13.1045 0.8955 14 2 14H14C15.1045 14 16 13.1045 16 12V4C16 2.8955 15.1045 2 14 2ZM10.708 7.33691L14.9414 3.70897C14.9707 3.80272 15 3.89647 15 4V12C15 12.0693 14.9736 12.1309 14.96 12.1963L10.708 7.33691ZM14 3C14.0664 3 14.125 3.02541 14.1875 3.03809L8 8.34181L1.8125 3.03809C1.875 3.02541 1.93359 3 2 3H14ZM1.03956 12.1953C1.02587 12.1299 1 12.0693 1 12V4C1 3.89647 1.02978 3.80272 1.05909 3.70897L5.29103 7.33594L1.03956 12.1953ZM2 13C1.89894 13 1.80712 12.9707 1.71484 12.9424L6.05078 7.98728L7.67481 9.37887C7.76806 9.45997 7.88428 9.5 8 9.5C8.11572 9.5 8.23194 9.45997 8.32519 9.37891L9.94922 7.98731L14.2852 12.9424C14.1934 12.9707 14.1016 13 14 13H2Z" fill="white"/>
</svg>
