<svg width="24" height="24" viewBox="0 0 24 24" fill="none" xmlns="http://www.w3.org/2000/svg">
<path d="M21.2824 8.58468H20.7061V5.80404C20.7061 5.78671 20.7034 5.76924 20.7013 5.75151C20.7004 5.64121 20.665 5.53278 20.5894 5.44686L15.9619 0.160951C15.9605 0.159594 15.9591 0.159113 15.9582 0.157668C15.9306 0.126852 15.8985 0.101202 15.8644 0.0790529C15.8543 0.072312 15.8442 0.0666653 15.8336 0.0607123C15.8042 0.0447354 15.7729 0.0312972 15.7408 0.0216236C15.732 0.0193474 15.7242 0.0157581 15.7155 0.0134819C15.6806 0.00516514 15.6443 0 15.6076 0H4.23528C3.71601 0 3.29413 0.42236 3.29413 0.941194V8.58442H2.71791C1.97505 8.58442 1.3727 9.18655 1.3727 9.92968V16.925C1.3727 17.6674 1.97505 18.2702 2.71791 18.2702H3.29413V23.0588C3.29413 23.5777 3.71601 24 4.23528 24H19.7647C20.2835 24 20.7058 23.5777 20.7058 23.0588V18.2702H21.2821C22.0248 18.2702 22.6272 17.6678 22.6272 16.9251V9.92994C22.6272 9.1866 22.0252 8.58468 21.2824 8.58468ZM4.23528 0.941194H15.137V5.75642C15.137 6.01643 15.3478 6.22701 15.6076 6.22701H19.7647V8.58464H4.23528V0.941194ZM13.7697 13.7735C12.8451 13.4513 12.2417 12.9398 12.2417 12.1301C12.2417 11.1803 13.0344 10.4537 14.3479 10.4537C14.9752 10.4537 15.4379 10.5856 15.7679 10.7344L15.4873 11.75C15.2645 11.6429 14.8681 11.4857 14.3231 11.4857C13.778 11.4857 13.5138 11.7335 13.5138 12.0226C13.5138 12.3778 13.8277 12.5346 14.5459 12.8071C15.5285 13.1706 15.991 13.6825 15.991 14.4669C15.991 15.4003 15.2725 16.1931 13.7447 16.1931C13.1089 16.1931 12.4814 16.0281 12.1675 15.8544L12.4233 14.814C12.762 14.9872 13.2824 15.161 13.819 15.161C14.3976 15.161 14.7027 14.9215 14.7027 14.558C14.7029 14.2114 14.4387 14.0129 13.7697 13.7735ZM11.6398 15.0533V16.1107H8.16258V10.544H9.42659V15.0533H11.6398ZM4.12497 16.1107H2.6881L4.2984 13.2938L2.74566 10.5438H4.19107L4.67804 11.5597C4.84323 11.8983 4.9672 12.1705 5.09948 12.4848H5.11554C5.24804 12.1296 5.35528 11.8819 5.49527 11.5597L5.96608 10.5438H7.403L5.83384 13.2605L7.48581 16.1102H6.03248L5.52845 15.1025C5.32232 14.7149 5.19008 14.4256 5.03312 14.1035H5.0167C4.90092 14.4256 4.76085 14.7149 4.58725 15.1025L4.12497 16.1107ZM19.7647 22.804H4.23528V18.2702H19.7647V22.804H19.7647ZM19.7732 16.1107L19.2693 15.103C19.0629 14.715 18.9308 14.4261 18.7738 14.1039H18.7578C18.642 14.4261 18.5014 14.715 18.3277 15.103L17.8658 16.1107H16.4285L18.0388 13.2938L16.4862 10.5438H17.9315L18.4191 11.5597C18.5841 11.8983 18.7077 12.1705 18.8401 12.4848H18.8566C18.9885 12.1296 19.0956 11.8819 19.2362 11.5597L19.7068 10.5438H21.1441L19.5749 13.2605L21.2265 16.1102H19.7732V16.1107Z" fill="#303030"/>
</svg>
