<svg width="24" height="24" viewBox="0 0 24 24" fill="none" xmlns="http://www.w3.org/2000/svg">
<path fill-rule="evenodd" clip-rule="evenodd" d="M12.0001 13.444L8.56305 15.559C8.19105 15.788 7.71905 15.774 7.36105 15.525C7.00305 15.276 6.82705 14.838 6.91305 14.41L7.71805 10.382L5.07105 7.735C4.76805 7.432 4.66905 6.979 4.81905 6.576C4.96905 6.174 5.34005 5.896 5.76905 5.866L9.41005 5.606L10.9921 1.915C11.1651 1.511 11.5611 1.25 12.0001 1.25C12.4391 1.25 12.8351 1.511 13.0081 1.915L14.5901 5.606L18.2311 5.866C18.6601 5.896 19.0311 6.174 19.1811 6.576C19.3311 6.979 19.2321 7.432 18.9291 7.735L16.2821 10.382L17.0871 14.41C17.1731 14.838 16.9971 15.276 16.6391 15.525C16.2811 15.774 15.8091 15.788 15.4371 15.559L12.0001 13.444ZM6.75605 7.299L9.06305 9.605C9.24005 9.783 9.31705 10.037 9.26805 10.283L8.56505 13.796L11.6071 11.924C11.8481 11.776 12.1521 11.776 12.3931 11.924L15.4351 13.796L14.7321 10.283C14.6831 10.037 14.7601 9.783 14.9371 9.605L17.2441 7.299L14.0271 7.069C13.7471 7.049 13.5021 6.875 13.3911 6.617L12.0001 3.37L10.6091 6.617C10.4981 6.875 10.2531 7.049 9.97305 7.069L6.75605 7.299Z" fill="#303030"/>
<path fill-rule="evenodd" clip-rule="evenodd" d="M15.4464 20.7149L17.1084 19.6919C17.3494 19.5439 17.6534 19.5439 17.8944 19.6919L19.5564 20.7149L19.1724 18.7939C19.1224 18.5479 19.1994 18.2939 19.3774 18.1159L20.6214 16.8719L18.8914 16.7479C18.4784 16.7189 18.1674 16.3599 18.1964 15.9469C18.2264 15.5339 18.5854 15.2229 18.9984 15.2519L21.8414 15.4549C22.2284 15.4829 22.5634 15.7339 22.6984 16.0969C22.8344 16.4599 22.7454 16.8689 22.4714 17.1439L20.7214 18.8929L21.2564 21.5669C21.3334 21.9539 21.1744 22.3489 20.8514 22.5739C20.5274 22.7999 20.1014 22.8119 19.7654 22.6049L17.5014 21.2119L15.2374 22.6049C14.9014 22.8119 14.4754 22.7999 14.1514 22.5739C13.8284 22.3489 13.6694 21.9539 13.7464 21.5669L14.2814 18.8929L12.5314 17.1439C12.2394 16.8509 12.2394 16.3759 12.5314 16.0829C12.8244 15.7899 13.2994 15.7899 13.5924 16.0829L15.6254 18.1159C15.8034 18.2939 15.8804 18.5479 15.8304 18.7939L15.4464 20.7149Z" fill="#303030"/>
<path fill-rule="evenodd" clip-rule="evenodd" d="M3.39001 16.8719L4.63401 18.1159C4.81201 18.2939 4.88801 18.5479 4.83901 18.7939L4.45501 20.7149L6.11701 19.6919C6.35801 19.5439 6.66201 19.5439 6.90301 19.6919L8.56501 20.7149L8.18001 18.7939C8.13101 18.5479 8.20801 18.2939 8.38601 18.1159L10.419 16.0829C10.712 15.7899 11.187 15.7899 11.48 16.0829C11.772 16.3759 11.772 16.8509 11.48 17.1439L9.73001 18.8929L10.265 21.5669C10.342 21.9539 10.183 22.3489 9.85901 22.5739C9.53601 22.7999 9.11001 22.8119 8.77401 22.6049L6.51001 21.2119L4.24601 22.6049C3.91001 22.8119 3.48401 22.7999 3.16001 22.5739C2.83701 22.3489 2.67801 21.9539 2.75501 21.5669L3.29001 18.8929L1.54001 17.1439C1.26601 16.8689 1.17701 16.4599 1.31201 16.0969C1.44801 15.7339 1.78301 15.4829 2.17001 15.4549L5.01301 15.2519C5.42601 15.2229 5.78501 15.5339 5.81401 15.9469C5.84401 16.3599 5.53301 16.7189 5.12001 16.7479L3.39001 16.8719Z" fill="#303030"/>
</svg>
