<svg width="16" height="16" viewBox="0 0 16 16" fill="none" xmlns="http://www.w3.org/2000/svg">
<path d="M7.75 8C7.75 9.37844 6.62844 10.5 5.25 10.5C3.87156 10.5 2.75 9.37844 2.75 8C2.75 6.62156 3.87156 5.5 5.25 5.5C6.62844 5.5 7.75 6.62156 7.75 8ZM4 8C4 8.6775 4.5725 9.25 5.25 9.25C5.9275 9.25 6.5 8.6775 6.5 8C6.5 7.3225 5.9275 6.75 5.25 6.75C4.5725 6.75 4 7.3225 4 8Z" fill="#3CBADE"/>
<path d="M4.00125 8C4.00125 8.345 3.72125 8.625 3.37625 8.625L1.125 8.625C0.78 8.625 0.5 8.345 0.5 8C0.5 7.655 0.78 7.375 1.125 7.375L3.37625 7.375C3.72156 7.375 4.00125 7.655 4.00125 8Z" fill="#3CBADE"/>
<path d="M15.4987 8C15.4987 8.345 15.2188 8.625 14.8737 8.625L7.125 8.625C6.78 8.625 6.5 8.345 6.5 8C6.5 7.655 6.78 7.375 7.125 7.375L14.8737 7.375C15.2187 7.375 15.4987 7.655 15.4987 8Z" fill="#3CBADE"/>
<path d="M12.625 3C12.625 4.37844 11.5034 5.5 10.125 5.5C8.74656 5.5 7.625 4.37844 7.625 3C7.625 1.62156 8.74656 0.5 10.125 0.5C11.5034 0.5 12.625 1.62156 12.625 3ZM8.875 3C8.875 3.6775 9.4475 4.25 10.125 4.25C10.8025 4.25 11.375 3.6775 11.375 3C11.375 2.3225 10.8025 1.75 10.125 1.75C9.4475 1.75 8.875 2.3225 8.875 3Z" fill="#3CBADE"/>
<path d="M8.87375 3C8.87375 3.345 8.59375 3.625 8.24875 3.625L1.125 3.625C0.78 3.625 0.5 3.345 0.5 3C0.5 2.655 0.78 2.375 1.125 2.375L8.24875 2.375C8.59375 2.375 8.87375 2.655 8.87375 3Z" fill="#3CBADE"/>
<path d="M15.5012 3C15.5012 3.345 15.2212 3.625 14.8762 3.625L12 3.625C11.655 3.625 11.375 3.345 11.375 3C11.375 2.655 11.655 2.375 12 2.375L14.8762 2.375C15.2212 2.375 15.5012 2.655 15.5012 3Z" fill="#3CBADE"/>
<path d="M13.875 13C13.875 14.3784 12.7534 15.5 11.375 15.5C9.99656 15.5 8.875 14.3784 8.875 13C8.875 11.6216 9.99656 10.5 11.375 10.5C12.7534 10.5 13.875 11.6216 13.875 13ZM10.125 13C10.125 13.6775 10.6975 14.25 11.375 14.25C12.0525 14.25 12.625 13.6775 12.625 13C12.625 12.3225 12.0525 11.75 11.375 11.75C10.6975 11.75 10.125 12.3225 10.125 13Z" fill="#3CBADE"/>
<path d="M15.5012 13C15.5012 13.345 15.2212 13.625 14.8762 13.625L13.25 13.625C12.905 13.625 12.625 13.345 12.625 13C12.625 12.655 12.905 12.375 13.25 12.375L14.8762 12.375C15.2212 12.375 15.5012 12.655 15.5012 13Z" fill="#3CBADE"/>
<path d="M10.1237 13C10.1237 13.345 9.84375 13.625 9.49875 13.625L1.125 13.625C0.78 13.625 0.5 13.345 0.5 13C0.5 12.655 0.78 12.375 1.125 12.375L9.49875 12.375C9.84375 12.375 10.1237 12.655 10.1237 13Z" fill="#3CBADE"/>
</svg>
