<svg width="24" height="24" viewBox="0 0 24 24" fill="none" xmlns="http://www.w3.org/2000/svg">
<g clip-path="url(#clip0_311_10479)">
<path d="M2.11762 0H21.8823C23.0519 0 24 0.948094 24 2.11762V21.8823C24 23.0519 23.0519 24 21.8824 24H2.11762C0.948094 24 0 23.0519 0 21.8824V2.11762C0 0.948094 0.948094 0 2.11762 0ZM1.41178 10.2353V15.5294H5.64708C5.81995 15.5294 5.98683 15.5928 6.11606 15.7077L9.29255 18.5312C9.58392 18.7902 9.61017 19.2364 9.35114 19.5278C9.09216 19.8192 8.64595 19.8454 8.35458 19.5864L5.37867 16.9412H1.41178V21.8824C1.41178 22.2722 1.72781 22.5883 2.11767 22.5883H21.8824C22.2722 22.5883 22.5883 22.2722 22.5883 21.8824V10.2353H20.4706C20.0808 10.2353 19.7648 9.91927 19.7648 9.52941C19.7648 9.13955 20.0808 8.82352 20.4706 8.82352H22.5883V2.11762C22.5883 1.72777 22.2722 1.41173 21.8824 1.41173H8.47059V2.82352C8.47059 3.21338 8.15456 3.52941 7.7647 3.52941C7.37484 3.52941 7.05881 3.21338 7.05881 2.82352V1.41178H2.11762C1.72777 1.41178 1.41173 1.72781 1.41173 2.11767V8.82356H7.05881V7.41178C7.05881 7.02192 7.37484 6.70589 7.7647 6.70589C8.15456 6.70589 8.47059 7.02192 8.47059 7.41178V8.82356H15.5294C15.9193 8.82356 16.2353 9.13959 16.2353 9.52945C16.2353 9.91931 15.9193 10.2353 15.5294 10.2353H14.1176V16.2353C14.1176 16.6252 13.8016 16.9412 13.4117 16.9412H11.2941C10.9043 16.9412 10.5882 16.6252 10.5882 16.2353C10.5882 15.8455 10.9043 15.5295 11.2941 15.5295H12.7059V10.2353H1.41178Z" fill="#303030"/>
</g>
<defs>
<clipPath id="clip0_311_10479">
<rect width="24" height="24" fill="white"/>
</clipPath>
</defs>
</svg>
