<svg width="14" height="14" viewBox="0 0 14 14" fill="none" xmlns="http://www.w3.org/2000/svg">
<path fill-rule="evenodd" clip-rule="evenodd" d="M2.91797 5.40365C2.91797 3.14615 4.7438 1.32031 7.0013 1.32031C9.2588 1.32031 11.0846 3.14615 11.0846 5.40365C11.0846 7.83614 8.5063 11.1903 7.45047 12.4678C7.21714 12.7478 6.7913 12.7478 6.55797 12.4678C5.49629 11.1903 2.91797 7.83614 2.91797 5.40365ZM5.54297 5.40365C5.54297 6.20864 6.1963 6.86197 7.0013 6.86197C7.8063 6.86197 8.45964 6.20864 8.45964 5.40365C8.45964 4.59865 7.8063 3.94531 7.0013 3.94531C6.1963 3.94531 5.54297 4.59865 5.54297 5.40365Z" fill="#3CBADE"/>
</svg>
