<svg width="24" height="24" viewBox="0 0 24 24" fill="none" xmlns="http://www.w3.org/2000/svg">
<g clip-path="url(#clip0_311_10482)">
<path d="M23.2697 9.2181L16.7213 3.28383V2.38589C16.7213 1.691 17.2868 1.12557 17.9816 1.12557C18.6765 1.12557 19.242 1.691 19.242 2.38589V4.6639C19.242 4.85818 19.3994 5.01546 19.5935 5.01546C19.7876 5.01546 19.9451 4.85818 19.9451 4.6639V2.38589C19.9451 1.30318 19.0644 0.422447 17.9816 0.422447C15.9098 0.422447 16.0182 2.64663 16.0182 2.64663L14.731 1.48006C13.174 0.0692369 10.8259 0.0690538 9.26895 1.48006L0.730192 9.2181C-0.179292 10.0423 -0.248689 11.4527 0.575468 12.3622C1.01419 12.8463 1.8323 13.3709 3.10214 12.9132V20.7882C3.10214 22.3045 4.33554 23.5379 5.85183 23.5379H18.1481C19.6644 23.5379 20.8978 22.3045 20.8978 20.7882V12.8923C21.9428 13.3213 23.0097 12.82 23.4245 12.3622C24.2486 11.4527 24.1792 10.0423 23.2697 9.2181ZM22.9035 11.89C22.6549 12.1643 21.6427 12.7193 20.746 11.9898L12.236 4.2781C12.1021 4.1567 11.8978 4.1567 11.7639 4.2781L8.21517 7.49398C8.07125 7.62435 8.06027 7.84682 8.19064 7.99074C8.32101 8.13448 8.54348 8.14547 8.68722 8.01509L12 5.01308L20.1947 12.4391V20.7882C20.1947 21.9166 19.2766 22.8347 18.1483 22.8347H8.82272V15.8656C8.82272 15.0797 9.46231 14.4403 10.2482 14.4403H13.7517C14.5378 14.4403 15.1772 15.0797 15.1772 15.8656V21.7073C15.1772 21.9014 15.3345 22.0589 15.5288 22.0589C15.7229 22.0589 15.8803 21.9014 15.8803 21.7073V15.8656C15.8803 14.692 14.9254 13.7371 13.7517 13.7371H10.2482C9.07449 13.7371 8.11959 14.692 8.11959 15.8656V22.8347H5.85183C4.72335 22.8347 3.80526 21.9166 3.80526 20.7883V12.4391L7.49905 9.09175C7.64297 8.96138 7.65396 8.73909 7.52358 8.59517C7.39321 8.45125 7.17074 8.44027 7.02682 8.57064L3.24734 11.9958C2.62515 12.5596 1.66037 12.5122 1.09659 11.89C0.532621 11.2678 0.580229 10.303 1.20224 9.73903L9.74117 2.00118C11.029 0.834251 12.9712 0.834251 14.2588 2.00118L22.7977 9.73921C23.4197 10.303 23.4673 11.2678 22.9035 11.89Z" fill="#303030"/>
</g>
<defs>
<clipPath id="clip0_311_10482">
<rect width="24" height="24" fill="white"/>
</clipPath>
</defs>
</svg>
