<svg width="19" height="24" viewBox="0 0 19 24" fill="none" xmlns="http://www.w3.org/2000/svg">
<path d="M9.05897 0C4.06384 0 0 4.06384 0 9.0589C0 11.1237 1.4521 14.1833 4.31602 18.1524C6.40673 21.0499 8.52785 23.4105 8.54899 23.4341L9.0589 24L9.56881 23.4341C9.59002 23.4106 11.7111 21.05 13.8018 18.1524C16.6657 14.1832 18.1178 11.1237 18.1178 9.0589C18.1179 4.06384 14.054 0 9.05897 0ZM9.0589 21.9378C6.51532 19.0076 1.37283 12.3939 1.37283 9.0589C1.37276 4.82078 4.82078 1.37276 9.05897 1.37276C13.2972 1.37276 16.7451 4.82078 16.7451 9.0589C16.7451 12.3919 11.6025 19.0069 9.0589 21.9378Z" fill="black"/>
<path d="M9.05947 12.4705C10.9433 12.4705 12.4705 10.9433 12.4705 9.05947C12.4705 7.17561 10.9433 5.64844 9.05947 5.64844C7.17561 5.64844 5.64844 7.17561 5.64844 9.05947C5.64844 10.9433 7.17561 12.4705 9.05947 12.4705Z" fill="black"/>
</svg>
