<svg width="30" height="30" viewBox="0 0 30 30" fill="none" xmlns="http://www.w3.org/2000/svg">
<path d="M22.3727 4.36099C22.4074 4.37731 22.4453 4.38577 22.4837 4.38577C22.522 4.38577 22.5599 4.37731 22.5947 4.36099C22.6607 4.32799 22.6907 4.26499 22.7237 4.16899C22.7867 3.75499 22.8197 3.18199 22.4687 2.83099C21.6377 2.00299 19.6937 3.05299 18.6737 3.78799C18.6591 3.7941 18.6459 3.80302 18.6347 3.81424C18.6236 3.82546 18.6148 3.83876 18.6088 3.85338C18.6028 3.86801 18.5998 3.88367 18.5998 3.89947C18.5999 3.91528 18.6031 3.93091 18.6092 3.94549C18.6153 3.96007 18.6242 3.9733 18.6354 3.98443C18.6466 3.99556 18.6599 4.00437 18.6746 4.01036C18.6892 4.01635 18.7048 4.0194 18.7206 4.01934C18.7365 4.01927 18.7521 4.0161 18.7667 4.00999C19.9766 3.80639 21.2189 3.92751 22.3667 4.36099H22.3727ZM23.7437 5.09899C24.5271 5.61952 25.1959 6.29474 25.7089 7.08316C26.2219 7.87159 26.5682 8.75658 26.7267 9.68375C26.8851 10.6109 26.8524 11.5607 26.6303 12.4748C26.4083 13.3888 26.0018 14.2478 25.4357 14.999C25.33 15.1386 25.2626 15.3033 25.24 15.4769C25.2174 15.6505 25.2403 15.827 25.3067 15.989L25.6067 16.688C25.6166 16.732 25.6408 16.7715 25.6756 16.8002C25.7103 16.829 25.7536 16.8454 25.7987 16.847L26.2757 16.913C26.3701 16.927 26.4588 16.967 26.5319 17.0284C26.605 17.0898 26.6596 17.1704 26.6897 17.261C26.8817 17.645 27.0407 18.092 27.2027 18.506C27.2344 18.5917 27.2423 18.6845 27.2253 18.7743C27.2084 18.8641 27.1674 18.9477 27.1067 19.016C27.0107 19.142 26.8817 19.316 26.7857 19.43C26.762 19.4675 26.7515 19.5118 26.7557 19.556L26.7857 19.622C26.7997 19.6637 26.8252 19.7007 26.8591 19.7288C26.893 19.7569 26.934 19.7749 26.9777 19.781L27.4577 19.844C27.5522 19.8589 27.6409 19.8995 27.7139 19.9615C27.7869 20.0234 27.8415 20.1041 27.8717 20.195C28.0637 20.576 28.2227 21.023 28.3817 21.437C28.4141 21.5226 28.4223 21.6155 28.4053 21.7055C28.3884 21.7955 28.347 21.879 28.2857 21.947C28.194 22.0709 28.0938 22.1882 27.9857 22.298C27.9422 22.3918 27.9316 22.4975 27.9557 22.598L28.4027 23.618C28.5041 23.9069 28.5259 24.2178 28.4657 24.518L27.9227 27.26C27.874 27.5167 27.7606 27.7568 27.5931 27.9574C27.4256 28.1579 27.2096 28.3124 26.9657 28.406C26.7297 28.5016 26.4726 28.5328 26.2207 28.4964C25.9687 28.4601 25.7309 28.3574 25.5317 28.199L23.2337 26.606C22.9781 26.4476 22.778 26.2138 22.6607 25.937L19.5977 18.32C19.5304 18.1559 19.4213 18.0122 19.2813 17.9033C19.1413 17.7944 18.9753 17.7239 18.7997 17.699C18.1785 17.5974 17.5734 17.4149 16.9997 17.156C16.9758 17.1397 16.9476 17.1311 16.9187 17.1311C16.8898 17.1311 16.8616 17.1397 16.8377 17.156C15.7886 17.3734 14.7042 17.3539 13.6637 17.099C13.4907 17.0519 13.3085 17.0506 13.1349 17.0953C12.9613 17.14 12.8023 17.2292 12.6737 17.354L12.1637 17.897C12.1323 17.9236 12.1096 17.9589 12.0984 17.9984C12.0871 18.0379 12.0879 18.0799 12.1007 18.119L12.2297 18.599C12.244 18.6907 12.2368 18.7846 12.2087 18.8731C12.1806 18.9615 12.1323 19.0423 12.0677 19.109L11.0987 20.072C11.0301 20.1327 10.9481 20.176 10.8593 20.1985C10.7706 20.2209 10.6778 20.2218 10.5887 20.201C10.4297 20.138 10.2377 20.105 10.0787 20.042C10.0345 20.0376 9.99011 20.0481 9.95267 20.072L9.91967 20.138C9.88614 20.1702 9.86243 20.2112 9.85128 20.2564C9.84013 20.3015 9.842 20.3489 9.85667 20.393L9.95267 20.837C9.98127 20.9255 9.98434 21.0203 9.96152 21.1105C9.93871 21.2008 9.89093 21.2827 9.82366 21.347L8.87866 22.304C8.81437 22.3713 8.73243 22.419 8.64222 22.4418C8.55201 22.4647 8.45721 22.4616 8.36867 22.433C8.22445 22.3749 8.07467 22.3316 7.92167 22.304C7.87755 22.2893 7.83018 22.2875 7.78505 22.2986C7.73992 22.3098 7.69887 22.3335 7.66667 22.367L6.86866 23.165C6.66015 23.3755 6.39396 23.5196 6.10367 23.579L3.36167 24.152C3.11183 24.2104 2.85109 24.203 2.60499 24.1304C2.35888 24.0579 2.13583 23.9226 1.95767 23.738C1.77074 23.562 1.6337 23.3397 1.56046 23.0937C1.48722 22.8476 1.48039 22.5865 1.54067 22.337L2.09867 19.595C2.16569 19.2978 2.30829 19.0229 2.51267 18.797L8.33567 12.998C8.46236 12.877 8.55098 12.7216 8.59066 12.551C8.65672 12.3874 8.65672 12.2046 8.59066 12.041C8.31169 10.8825 8.3322 9.67209 8.65026 8.52373C8.96831 7.37537 9.57345 6.32687 10.4087 5.47699C11.6231 4.25748 13.2521 3.53988 14.9717 3.46699C15.0395 3.45945 15.1082 3.46619 15.1733 3.4868C15.2384 3.5074 15.2984 3.54141 15.3496 3.58662C15.4007 3.63184 15.4418 3.68726 15.4703 3.74933C15.4987 3.81139 15.5138 3.87873 15.5147 3.94699C15.5218 4.01461 15.5147 4.08296 15.4939 4.14769C15.4731 4.21241 15.439 4.27209 15.3938 4.32291C15.3486 4.37372 15.2934 4.41456 15.2315 4.44281C15.1697 4.47106 15.1026 4.48611 15.0347 4.48699C14.1653 4.52678 13.3156 4.75946 12.5472 5.16818C11.7789 5.57689 11.111 6.1514 10.5921 6.85009C10.0732 7.54877 9.71619 8.35414 9.54696 9.20784C9.37773 10.0615 9.40052 10.9422 9.61366 11.786C9.68222 12.135 9.67094 12.495 9.58066 12.839C9.48837 13.1768 9.31305 13.4862 9.07066 13.739L3.23267 19.532C3.17791 19.6105 3.13449 19.6964 3.10367 19.787L2.53067 22.559C2.51549 22.64 2.52077 22.7235 2.54603 22.8019C2.57129 22.8804 2.61573 22.9512 2.67532 23.0082C2.73492 23.0651 2.80777 23.1062 2.88729 23.1278C2.9668 23.1494 3.05046 23.1509 3.13067 23.132L5.87567 22.592C5.92678 22.5843 5.97578 22.5663 6.01964 22.5389C6.06351 22.5116 6.10129 22.4755 6.13067 22.433L7.21367 21.347C7.2825 21.2755 7.36881 21.2232 7.46404 21.1954C7.55928 21.1675 7.66015 21.1649 7.75667 21.188L8.20367 21.317C8.24805 21.3313 8.29559 21.3327 8.34074 21.321C8.38589 21.3093 8.42679 21.285 8.45867 21.251L8.77666 20.933C8.81019 20.9008 8.8339 20.8597 8.84505 20.8146C8.8562 20.7695 8.85433 20.7221 8.83966 20.678L8.71366 20.201C8.69276 20.1146 8.69659 20.024 8.72471 19.9397C8.75282 19.8553 8.80409 19.7806 8.87266 19.724L9.47266 19.124C9.52954 19.0465 9.60974 18.9892 9.70152 18.9606C9.79329 18.932 9.89182 18.9335 9.98267 18.965L10.4627 19.091C10.502 19.0957 10.5419 19.0925 10.58 19.0817C10.6181 19.0709 10.6537 19.0526 10.6847 19.028L11.0057 18.71C11.041 18.6772 11.0679 18.6363 11.0841 18.5909C11.1003 18.5454 11.1053 18.4968 11.0987 18.449L10.9847 17.999C10.9482 17.9117 10.9408 17.815 10.9634 17.7232C10.9861 17.6313 11.0377 17.5492 11.1107 17.489L11.9417 16.628C12.1997 16.3796 12.5158 16.1998 12.8611 16.105C13.2064 16.0101 13.57 16.0033 13.9187 16.085C14.905 16.3301 15.9375 16.3198 16.9187 16.055C18.0963 15.7229 19.1417 15.0334 19.9106 14.0816C20.6795 13.1299 21.1338 11.9628 21.2109 10.7417C21.2879 9.5206 20.9839 8.3057 20.3408 7.26482C19.6977 6.22394 18.7472 5.40845 17.6207 4.93099C17.5696 4.91355 17.5148 4.91019 17.462 4.92128C17.4092 4.93237 17.3604 4.95749 17.3207 4.99399C16.7099 5.65724 16.204 6.40992 15.8207 7.22599C15.8062 7.26147 15.7998 7.29973 15.802 7.33797C15.8042 7.37622 15.8149 7.4135 15.8333 7.44711C15.8516 7.48072 15.8773 7.50982 15.9083 7.53228C15.9393 7.55475 15.975 7.57002 16.0127 7.57699C16.5385 7.67571 17.0219 7.93205 17.3987 8.31199C17.8749 8.7967 18.1417 9.44901 18.1417 10.1285C18.1417 10.808 17.8749 11.4603 17.3987 11.945C17.1618 12.187 16.8789 12.3793 16.5668 12.5106C16.2546 12.6418 15.9193 12.7094 15.5807 12.7094C15.242 12.7094 14.9068 12.6418 14.5946 12.5106C14.2824 12.3793 13.9996 12.187 13.7627 11.945C13.4622 11.6515 13.2381 11.2889 13.11 10.8888C12.9819 10.4888 12.9536 10.0635 13.0277 9.64999C13.0618 9.52307 13.1427 9.41372 13.2539 9.34378C13.3652 9.27384 13.4988 9.24845 13.628 9.2727C13.7572 9.29695 13.8725 9.36904 13.9508 9.47457C14.0292 9.5801 14.0648 9.71132 14.0507 9.84199C14.0008 10.0897 14.0158 10.346 14.0941 10.5862C14.1724 10.8264 14.3114 11.0423 14.4977 11.213C14.7735 11.4896 15.1447 11.6502 15.5351 11.6619C15.9256 11.6736 16.3057 11.5356 16.5977 11.276C16.6384 11.2436 16.668 11.1993 16.6823 11.1493C16.6966 11.0993 16.6948 11.046 16.6773 10.997C16.6597 10.948 16.6273 10.9058 16.5845 10.8762C16.5417 10.8466 16.4907 10.8311 16.4387 10.832C15.9235 10.8071 15.4355 10.5936 15.0677 10.232C14.5577 9.72199 14.3987 8.95699 14.5247 8.09599C14.7497 6.56599 15.8657 5.00299 16.9247 3.95299C17.8494 2.96498 18.9945 2.20945 20.2667 1.74799C21.4667 1.33399 22.5317 1.42999 23.2007 2.09899C23.8697 2.76799 23.9027 3.88399 23.6477 4.79899C23.6314 4.85054 23.6319 4.90592 23.6492 4.95715C23.6664 5.00838 23.6995 5.05279 23.7437 5.08399V5.09899ZM15.8027 9.49099C15.9376 9.63306 16.1181 9.7233 16.3127 9.74599C17.0447 9.90499 17.1737 9.55699 16.6637 9.04699C16.4717 8.85499 15.8327 8.44699 15.6107 8.66299C15.3887 8.87899 15.6407 9.33199 15.8027 9.49099ZM5.43467 20.966C5.3372 21.0635 5.205 21.1182 5.06717 21.1182C4.92933 21.1182 4.79713 21.0635 4.69967 20.966C4.6022 20.8685 4.54744 20.7363 4.54744 20.5985C4.54744 20.4607 4.6022 20.3285 4.69967 20.231L9.13367 15.833C9.23113 15.7355 9.36333 15.6808 9.50116 15.6808C9.639 15.6808 9.7712 15.7355 9.86867 15.833C9.96613 15.9305 10.0209 16.0627 10.0209 16.2005C10.0209 16.3383 9.96613 16.4705 9.86867 16.568L5.43467 20.966ZM19.1177 16.694C19.4412 16.7671 19.7417 16.9189 19.9924 17.1361C20.2431 17.3533 20.4363 17.6291 20.5547 17.939L23.6177 25.556C23.663 25.6434 23.7276 25.7193 23.8067 25.778L26.0987 27.371C26.169 27.4178 26.2496 27.4468 26.3337 27.4556C26.4177 27.4644 26.5026 27.4526 26.5811 27.4213C26.6596 27.3901 26.7293 27.3402 26.7843 27.276C26.8392 27.2119 26.8778 27.1353 26.8967 27.053L27.4457 24.299C27.4605 24.2493 27.4653 24.1972 27.4596 24.1456C27.4539 24.0941 27.438 24.0442 27.4127 23.999L26.8397 22.559C26.808 22.4752 26.7972 22.3851 26.8082 22.2962C26.8192 22.2074 26.8516 22.1225 26.9027 22.049L27.2027 21.668C27.2657 21.572 27.2987 21.476 27.2657 21.413L27.0617 20.999C27.0513 20.9552 27.0269 20.916 26.9923 20.8873C26.9576 20.8587 26.9146 20.842 26.8697 20.84L26.3987 20.741C26.3047 20.7394 26.2137 20.7077 26.1391 20.6504C26.0646 20.5931 26.0104 20.5134 25.9847 20.423L25.6637 19.628C25.6264 19.5397 25.6126 19.4433 25.6237 19.3482C25.6347 19.253 25.6702 19.1624 25.7267 19.085L26.0267 18.734C26.0534 18.6978 26.0705 18.6554 26.0763 18.6108C26.0821 18.5662 26.0764 18.5208 26.0597 18.479L25.9007 18.032C25.8594 17.9563 25.7907 17.8994 25.7087 17.873L25.1987 17.81C25.1047 17.8084 25.0137 17.7767 24.9391 17.7194C24.8646 17.6621 24.8104 17.5824 24.7847 17.492L24.3377 16.376C24.1973 16.0539 24.1474 15.6996 24.1934 15.3512C24.2394 15.0029 24.3795 14.6736 24.5987 14.399C25.2383 13.5563 25.6391 12.557 25.759 11.5059C25.8789 10.4548 25.7135 9.3908 25.2801 8.42575C24.8467 7.4607 24.1613 6.63022 23.296 6.0216C22.4307 5.41297 21.4174 5.04867 20.3627 4.96699C20.3113 4.96798 20.2614 4.98375 20.2188 5.01241C20.1762 5.04107 20.1428 5.0814 20.1225 5.12857C20.1022 5.17574 20.096 5.22775 20.1045 5.27837C20.1131 5.329 20.136 5.37608 20.1707 5.41399L20.3627 5.60299C21.5838 6.89417 22.2579 8.60786 22.2437 10.385C22.2409 11.546 21.9477 12.6878 21.3907 13.7065C20.8337 14.7251 20.0306 15.5882 19.0547 16.217C19.0076 16.2409 18.969 16.2788 18.9444 16.3255C18.9198 16.3722 18.9103 16.4255 18.9172 16.4778C18.9241 16.5302 18.9471 16.5791 18.983 16.6178C19.0189 16.6565 19.066 16.6832 19.1177 16.694ZM25.8167 24.089C26.0717 24.725 25.0847 25.109 24.8297 24.47L22.4687 18.599C22.2137 17.999 23.2007 17.579 23.4587 18.215L25.8167 24.089Z" fill="#303030"/>
</svg>
