<svg width="20" height="20" viewBox="0 0 20 20" fill="none" xmlns="http://www.w3.org/2000/svg">
<path d="M5.64138 17.2603L16.647 6.25469L13.7437 3.35156L2.73794 14.3572C2.67887 14.4044 2.63309 14.4691 2.61247 14.5478L1.75684 17.7983C1.75528 17.8045 1.75528 17.8111 1.75387 17.8172C1.75106 17.83 1.74934 17.8425 1.74778 17.8558C1.74669 17.8675 1.74638 17.8788 1.74638 17.8905C1.74622 17.9025 1.74653 17.9134 1.74778 17.9256C1.74934 17.9388 1.75106 17.9516 1.75387 17.9641C1.75512 17.9703 1.75512 17.9769 1.75684 17.983C1.75794 17.9875 1.76012 17.9916 1.76169 17.9959C1.76528 18.0081 1.76997 18.02 1.77513 18.0319C1.77966 18.0423 1.78403 18.0528 1.78919 18.0625C1.79497 18.0728 1.80122 18.0823 1.80809 18.092C1.8145 18.1019 1.82106 18.1117 1.82841 18.1208C1.83575 18.13 1.84403 18.1378 1.85216 18.1461C1.86044 18.1545 1.86856 18.1625 1.87763 18.1698C1.88638 18.1773 1.89622 18.1839 1.90606 18.1903C1.91591 18.197 1.92544 18.2034 1.93606 18.2091C1.94575 18.2142 1.95606 18.2188 1.96653 18.2231C1.97841 18.2283 1.99013 18.233 2.00247 18.2367C2.00684 18.2381 2.01091 18.2403 2.01544 18.2416C2.02169 18.2431 2.02809 18.2431 2.03434 18.2447C2.047 18.2473 2.05966 18.2491 2.07278 18.2505C2.08481 18.2519 2.09591 18.2522 2.10778 18.252C2.1195 18.252 2.13075 18.2519 2.14262 18.2508C2.15575 18.2491 2.16856 18.2473 2.18122 18.2447C2.18747 18.2431 2.19403 18.2431 2.20012 18.2416L5.45075 17.3861C5.52966 17.3655 5.5945 17.3197 5.64138 17.2603ZM3.06997 16.9284C2.98637 16.8448 2.872 16.8119 2.76309 16.827L3.26044 14.9373L5.06138 16.7381L3.17137 17.2353C3.18669 17.1264 3.15387 17.012 3.06997 16.9284Z" fill="#3CBADE"/>
<path d="M17.1397 5.76141L14.2366 2.85813L15.3486 1.74609C15.3486 1.74609 17.3261 2.45141 18.2517 4.64953L17.1397 5.76141Z" fill="#3CBADE"/>
</svg>
