<svg width="20" height="20" viewBox="0 0 20 20" fill="none" xmlns="http://www.w3.org/2000/svg">
<path d="M5.64113 17.2603L16.6468 6.25469L13.7435 3.35156L2.73769 14.3572C2.67863 14.4044 2.63285 14.4691 2.61222 14.5478L1.7566 17.7983C1.75504 17.8045 1.75504 17.8111 1.75363 17.8172C1.75082 17.83 1.7491 17.8425 1.74754 17.8558C1.74644 17.8675 1.74613 17.8788 1.74613 17.8905C1.74597 17.9025 1.74629 17.9134 1.74754 17.9256C1.7491 17.9388 1.75082 17.9516 1.75363 17.9641C1.75488 17.9703 1.75488 17.9769 1.7566 17.983C1.75769 17.9875 1.75988 17.9916 1.76144 17.9959C1.76504 18.0081 1.76972 18.02 1.77488 18.0319C1.77941 18.0423 1.78379 18.0528 1.78894 18.0625C1.79472 18.0728 1.80097 18.0823 1.80785 18.092C1.81426 18.1019 1.82082 18.1117 1.82816 18.1208C1.83551 18.13 1.84379 18.1378 1.85191 18.1461C1.86019 18.1545 1.86832 18.1625 1.87738 18.1698C1.88613 18.1773 1.89597 18.1839 1.90582 18.1903C1.91566 18.197 1.92519 18.2034 1.93582 18.2091C1.94551 18.2142 1.95582 18.2188 1.96629 18.2231C1.97816 18.2283 1.98988 18.233 2.00222 18.2367C2.0066 18.2381 2.01066 18.2403 2.01519 18.2416C2.02144 18.2431 2.02785 18.2431 2.0341 18.2447C2.04676 18.2473 2.05941 18.2491 2.07254 18.2505C2.08457 18.2519 2.09566 18.2522 2.10754 18.252C2.11926 18.252 2.13051 18.2519 2.14238 18.2508C2.15551 18.2491 2.16832 18.2473 2.18097 18.2447C2.18722 18.2431 2.19379 18.2431 2.19988 18.2416L5.45051 17.3861C5.52941 17.3655 5.59426 17.3197 5.64113 17.2603ZM3.06972 16.9284C2.98613 16.8448 2.87176 16.8119 2.76285 16.827L3.26019 14.9373L5.06113 16.7381L3.17113 17.2353C3.18644 17.1264 3.15363 17.012 3.06972 16.9284Z" fill="#3CBADE"/>
<path d="M17.1375 5.76141L14.2344 2.85813L15.3464 1.74609C15.3464 1.74609 17.3239 2.45141 18.2495 4.64953L17.1375 5.76141Z" fill="#3CBADE"/>
</svg>
