<svg width="12" height="12" viewBox="0 0 12 12" fill="none" xmlns="http://www.w3.org/2000/svg">
<path d="M9.60963 7.63282L8.33963 7.48782C8.03463 7.45282 7.73463 7.55782 7.51963 7.77282L6.59963 8.69282C5.18463 7.97282 4.02465 6.81782 3.30465 5.39782L4.22965 4.47281C4.44465 4.25781 4.54965 3.95781 4.51465 3.65281L4.36965 2.39281C4.30965 1.88781 3.88465 1.50781 3.37465 1.50781H2.50965C1.94465 1.50781 1.47465 1.97781 1.50965 2.54281C1.77465 6.81282 5.18963 10.2228 9.45463 10.4878C10.0196 10.5228 10.4896 10.0528 10.4896 9.48782V8.62282C10.4946 8.11782 10.1146 7.69282 9.60963 7.63282Z" fill="#3CBADE"/>
</svg>
