<svg width="24" height="24" viewBox="0 0 24 24" fill="none" xmlns="http://www.w3.org/2000/svg">
<path d="M9.46243 5.61328H5.06803C3.43839 5.61328 2.11328 6.93886 2.11328 8.56897V9.39911H5.29147C6.12915 7.65115 7.62632 6.28314 9.46243 5.61328Z" fill="#303030"/>
<path d="M18.9321 5.61328H14.5391C16.3756 6.2822 17.8714 7.65115 18.711 9.39864H21.8892V8.56897C21.8873 6.93981 20.5612 5.61328 18.9321 5.61328Z" fill="#303030"/>
<path d="M20.3089 18.9811C20.7632 18.9811 21.1315 18.6128 21.1315 18.1585C21.1315 17.7042 20.7632 17.3359 20.3089 17.3359C19.8546 17.3359 19.4863 17.7042 19.4863 18.1585C19.4863 18.6128 19.8546 18.9811 20.3089 18.9811Z" fill="#303030"/>
<path d="M18.932 3.50036H15.5459C15.4144 2.82579 14.151 2.29688 13.4623 2.29688H10.5372C9.84852 2.29688 8.58517 2.82579 8.45365 3.50036H7.4868C7.43165 3.0827 7.0781 2.76073 6.64535 2.76073H3.96449C3.49309 2.76073 3.11078 3.14257 3.11078 3.61397C3.11078 3.70637 3.13011 3.79405 3.15698 3.87796C1.3072 4.63456 0 6.45087 0 8.56887V16.6322C0 19.4281 2.2731 21.7012 5.06757 21.7012H18.9315C21.7264 21.7012 24 19.4281 24 16.6322V8.5684C24 5.77393 21.726 3.50036 18.932 3.50036ZM22.4406 16.6327C22.4406 18.5673 20.8671 20.1413 18.9324 20.1413H5.06898C3.13435 20.1413 1.56128 18.5673 1.56128 16.6327V8.56887C1.56128 6.63424 3.13482 5.06117 5.06898 5.06117H18.9315C20.8666 5.06117 22.4401 6.63471 22.4401 8.56887L22.4406 16.6327Z" fill="#303030"/>
<path d="M12.0006 8.375C9.66807 8.375 7.77539 10.2667 7.77539 12.5997C7.77539 14.9322 9.66807 16.8239 12.0006 16.8239C14.3335 16.8239 16.2262 14.9327 16.2262 12.5997C16.2257 10.2658 14.3335 8.375 12.0006 8.375ZM12.1934 16.3865C12.1132 16.6382 11.5094 16.6712 10.8461 16.4586C10.1833 16.2474 9.71002 15.8726 9.79016 15.6209C9.8703 15.3692 10.4732 15.3362 11.1365 15.5478C11.8002 15.7586 12.2735 16.1343 12.1934 16.3865ZM14.2831 10.1621C14.1459 10.5892 13.4977 10.7631 12.834 10.5524C12.1712 10.3407 11.7437 9.82362 11.8794 9.39653C12.0156 8.96944 12.6638 8.79502 13.3276 9.00621C13.9913 9.21787 14.4193 9.73452 14.2831 10.1621Z" fill="#303030"/>
<path d="M12.0002 5.9375C8.3256 5.9375 5.33691 8.92619 5.33691 12.6003C5.33691 16.2749 8.3256 19.2636 12.0002 19.2636C15.6738 19.2636 18.6639 16.2749 18.6639 12.6003C18.6639 8.92619 15.6738 5.9375 12.0002 5.9375ZM12.0002 17.7032C9.18544 17.7032 6.89725 15.4141 6.89725 12.6003C6.89725 9.78649 9.18544 7.49737 12.0002 7.49737C14.8144 7.49737 17.1026 9.78649 17.1026 12.6003C17.1026 15.4141 14.814 17.7032 12.0002 17.7032Z" fill="#303030"/>
</svg>
