<svg width="24" height="24" viewBox="0 0 24 24" fill="none" xmlns="http://www.w3.org/2000/svg">
<g clip-path="url(#clip0_6472_5392)">
<path d="M14.6871 14.3051H11.3821V13.4166H12.6156C13.5582 13.4166 14.4622 13.0422 15.1287 12.3757C15.7952 11.7091 16.1696 10.8052 16.1696 9.86259C16.1696 8.92001 15.7952 8.01604 15.1287 7.34954C14.4622 6.68303 13.5582 6.30859 12.6156 6.30859H10.6321C10.4332 6.30859 10.2424 6.38761 10.1018 6.52826C9.96112 6.66892 9.8821 6.85968 9.8821 7.05859V11.9166H8.5791C8.38019 11.9166 8.18942 11.9956 8.04877 12.1363C7.90812 12.2769 7.8291 12.4677 7.8291 12.6666C7.8291 12.8655 7.90812 13.0563 8.04877 13.1969C8.18942 13.3376 8.38019 13.4166 8.5791 13.4166H9.8821V14.3051H8.5791C8.38019 14.3051 8.18942 14.3841 8.04877 14.5248C7.90812 14.6654 7.8291 14.8562 7.8291 15.0551C7.8291 15.254 7.90812 15.4448 8.04877 15.5854C8.18942 15.7261 8.38019 15.8051 8.5791 15.8051H9.8821V16.9416C9.8821 17.1405 9.96112 17.3313 10.1018 17.4719C10.2424 17.6126 10.4332 17.6916 10.6321 17.6916C10.831 17.6916 11.0218 17.6126 11.1624 17.4719C11.3031 17.3313 11.3821 17.1405 11.3821 16.9416V15.8051H14.6871C14.886 15.8051 15.0768 15.7261 15.2174 15.5854C15.3581 15.4448 15.4371 15.254 15.4371 15.0551C15.4371 14.8562 15.3581 14.6654 15.2174 14.5248C15.0768 14.3841 14.886 14.3051 14.6871 14.3051ZM11.3821 7.80859H12.6156C13.1604 7.80859 13.6828 8.025 14.068 8.4102C14.4532 8.7954 14.6696 9.31784 14.6696 9.86259C14.6696 10.4073 14.4532 10.9298 14.068 11.315C13.6828 11.7002 13.1604 11.9166 12.6156 11.9166H11.3821V7.80859Z" fill="#303030"/>
<path d="M11.9997 24C10.106 23.9998 8.23924 23.5514 6.55204 22.6915C4.86484 21.8317 3.4051 20.5847 2.29215 19.0526C1.17921 17.5204 0.444662 15.7467 0.148571 13.8763C-0.14752 12.0059 0.00324965 10.092 0.588554 8.29102C1.17386 6.49006 2.17708 4.85318 3.51619 3.51422C4.85531 2.17526 6.4923 1.17224 8.29333 0.587143C10.0944 0.00204963 12.0083 -0.148496 13.8787 0.147814C15.749 0.444124 17.5227 1.17888 19.0547 2.292C19.2155 2.40903 19.3233 2.58516 19.3543 2.78165C19.3853 2.97814 19.337 3.1789 19.2199 3.33975C19.1029 3.50061 18.9268 3.60838 18.7303 3.63937C18.5338 3.67036 18.333 3.62203 18.1722 3.505C16.0856 1.9909 13.5144 1.29853 10.9497 1.56013C8.38492 1.82173 6.00644 3.01897 4.26852 4.92316C2.53061 6.82735 1.55508 9.30503 1.52826 11.8829C1.50144 14.4608 2.42523 16.9583 4.12315 18.8982C5.82107 20.8381 8.17414 22.0846 10.7329 22.3995C13.2916 22.7144 15.8767 22.0756 17.9943 20.6053C20.1119 19.1349 21.6137 16.936 22.2127 14.4285C22.8117 11.921 22.466 9.28075 21.2417 7.012C21.1542 6.83767 21.138 6.6361 21.1967 6.45006C21.2553 6.26402 21.3842 6.10815 21.5558 6.01552C21.7275 5.92289 21.9285 5.90079 22.1162 5.9539C22.3039 6.00701 22.4635 6.13116 22.5612 6.3C23.5469 8.12828 24.0413 10.181 23.9961 12.2576C23.951 14.3342 23.3677 16.3635 22.3034 18.1472C21.2391 19.9309 19.7302 21.4078 17.9241 22.4337C16.1181 23.4596 14.0768 23.9993 11.9997 24Z" fill="#303030"/>
<path d="M20.5604 5.45005C20.452 5.45019 20.3449 5.42685 20.2464 5.38162C20.1479 5.33639 20.0604 5.27035 19.9899 5.18805L19.8549 5.03255C19.788 4.95918 19.7364 4.87326 19.7029 4.77978C19.6695 4.6863 19.655 4.58711 19.6602 4.48797C19.6654 4.38883 19.6903 4.29172 19.7333 4.20225C19.7763 4.11279 19.8367 4.03276 19.9109 3.9668C19.9851 3.90084 20.0716 3.85027 20.1655 3.81802C20.2594 3.78577 20.3588 3.77248 20.4578 3.77892C20.5569 3.78537 20.6537 3.81141 20.7426 3.85555C20.8316 3.89969 20.9108 3.96104 20.9759 4.03605L21.1299 4.21255C21.223 4.32147 21.283 4.45481 21.3028 4.59678C21.3225 4.73874 21.3012 4.88339 21.2412 5.0136C21.1813 5.1438 21.0853 5.25411 20.9647 5.33146C20.844 5.40881 20.7037 5.44997 20.5604 5.45005Z" fill="#303030"/>
</g>
<defs>
<clipPath id="clip0_6472_5392">
<rect width="24" height="24" fill="white"/>
</clipPath>
</defs>
</svg>
