<svg width="5" height="9" viewBox="0 0 5 9" fill="none" xmlns="http://www.w3.org/2000/svg">
<path d="M2.1 6.1C2.1 5.77333 2.16667 5.47667 2.3 5.21C2.43333 4.93667 2.59333 4.70667 2.78 4.52C2.96667 4.33333 3.15333 4.15333 3.34 3.98C3.52667 3.80667 3.68667 3.61667 3.82 3.41C3.95333 3.19667 4.02 2.97 4.02 2.73C4.02 2.34333 3.88667 2.05333 3.62 1.86C3.36 1.66 3.02333 1.56 2.61 1.56C1.79 1.56 1.28333 1.89667 1.09 2.57L0.5 2.24C0.653333 1.79333 0.92 1.45667 1.3 1.23C1.68667 0.996666 2.12333 0.88 2.61 0.88C3.19667 0.88 3.69333 1.04333 4.1 1.37C4.51333 1.69 4.72 2.14333 4.72 2.73C4.72 3.01667 4.65333 3.28333 4.52 3.53C4.38667 3.77667 4.22667 3.99333 4.04 4.18C3.85333 4.36 3.66667 4.54 3.48 4.72C3.29333 4.9 3.13333 5.11 3 5.35C2.86667 5.58333 2.8 5.83333 2.8 6.1H2.1ZM2.84 7.94C2.73333 8.04667 2.60333 8.1 2.45 8.1C2.29667 8.1 2.16667 8.04667 2.06 7.94C1.95333 7.83333 1.9 7.70333 1.9 7.55C1.9 7.39667 1.95333 7.26667 2.06 7.16C2.16667 7.05333 2.29667 7 2.45 7C2.60333 7 2.73333 7.05333 2.84 7.16C2.94667 7.26667 3 7.39667 3 7.55C3 7.70333 2.94667 7.83333 2.84 7.94Z" fill="#303030"/>
</svg>
