<svg width="24" height="24" viewBox="0 0 24 24" fill="none" xmlns="http://www.w3.org/2000/svg">
<path d="M23.625 15.9375H22.5V13.6875H23.25C23.4571 13.6874 23.6249 13.5195 23.6248 13.3123C23.6248 13.2918 23.6231 13.2712 23.6198 13.251L23.2448 11.001C23.2147 10.8202 23.0583 10.6876 22.875 10.6875H21.375C21.1917 10.6876 21.0353 10.8202 21.0052 11.001L20.6302 13.251C20.5963 13.4553 20.7344 13.6485 20.9387 13.6824C20.9589 13.6858 20.9795 13.6875 21 13.6875H21.75V15.9375H20.25C20.2373 15.9392 20.2248 15.9417 20.2125 15.945C20.0364 15.0695 19.2681 14.439 18.375 14.4375H17.625V13.3125C17.625 12.6912 17.1213 12.1875 16.5 12.1875H13.5C12.8787 12.1875 12.375 12.6912 12.375 13.3125V14.4375H11.625V13.3125C11.625 12.6912 11.1213 12.1875 10.5 12.1875H7.5C6.87867 12.1875 6.375 12.6912 6.375 13.3125V14.4375H5.625C4.73194 14.439 3.96356 15.0695 3.7875 15.945C3.77517 15.9417 3.76266 15.9392 3.75 15.9375H2.25V13.6875H3C3.20709 13.6874 3.37491 13.5195 3.37481 13.3123C3.37481 13.2918 3.37313 13.2712 3.36975 13.251L2.99475 11.001C2.9647 10.8202 2.80833 10.6876 2.625 10.6875H1.125C0.941672 10.6876 0.785297 10.8202 0.75525 11.001L0.38025 13.251C0.346266 13.4553 0.484359 13.6485 0.688688 13.6824C0.708938 13.6858 0.729469 13.6875 0.75 13.6875H1.5V15.9375H0.375C0.167906 15.9375 0 16.1054 0 16.3125V20.4375C0 20.6446 0.167906 20.8125 0.375 20.8125H23.625C23.8321 20.8125 24 20.6446 24 20.4375V16.3125C24 16.1054 23.8321 15.9375 23.625 15.9375ZM1.19288 12.9375L1.44262 11.4375H2.30737L2.55712 12.9375H1.19288ZM3.375 20.0625H0.75V16.6875H3.375V20.0625ZM13.125 13.3125C13.125 13.1054 13.2929 12.9375 13.5 12.9375H16.5C16.7071 12.9375 16.875 13.1054 16.875 13.3125V14.4375H13.125V13.3125ZM7.125 13.3125C7.125 13.1054 7.29291 12.9375 7.5 12.9375H10.5C10.7071 12.9375 10.875 13.1054 10.875 13.3125V14.4375H7.125V13.3125ZM19.5 20.0625H4.5V18.9375H19.5V20.0625ZM19.5 18.1875H4.5V16.3125C4.5 15.6912 5.00367 15.1875 5.625 15.1875H18.375C18.9963 15.1875 19.5 15.6912 19.5 16.3125V18.1875ZM21.4429 12.9375L21.6926 11.4375H22.5574L22.8071 12.9375H21.4429ZM23.25 20.0625H20.625V16.6875H23.25V20.0625Z" fill="#303030"/>
<path d="M7.5 9.9375H15.75C15.9571 9.9375 16.125 9.76959 16.125 9.5625V3.5625C16.125 3.35541 15.9571 3.1875 15.75 3.1875H7.5C7.29291 3.1875 7.125 3.35541 7.125 3.5625V9.5625C7.125 9.76959 7.29291 9.9375 7.5 9.9375ZM7.875 3.9375H15.375V7.743L14.5429 6.70312C14.4764 6.61973 14.3775 6.56859 14.271 6.5625C14.1646 6.55781 14.0611 6.59728 13.9849 6.67163L12.75 7.90725L10.3901 5.54738C10.2516 5.40905 10.0299 5.40056 9.88125 5.52787L7.875 7.24762V3.9375ZM7.875 8.23462L10.1051 6.32212L12.4849 8.7015C12.6313 8.84789 12.8687 8.84789 13.0151 8.7015L14.2189 7.49775L15.375 8.9445V9.1875H7.875V8.23462Z" fill="#303030"/>
<path d="M13.125 6.5625C13.7463 6.5625 14.25 6.05883 14.25 5.4375C14.25 4.81617 13.7463 4.3125 13.125 4.3125C12.5037 4.3125 12 4.81617 12 5.4375C12 6.05883 12.5037 6.5625 13.125 6.5625ZM13.125 5.0625C13.3321 5.0625 13.5 5.23041 13.5 5.4375C13.5 5.64459 13.3321 5.8125 13.125 5.8125C12.9179 5.8125 12.75 5.64459 12.75 5.4375C12.75 5.23041 12.9179 5.0625 13.125 5.0625Z" fill="#303030"/>
</svg>
