<svg width="24" height="24" viewBox="0 0 24 24" fill="none" xmlns="http://www.w3.org/2000/svg">
<g clip-path="url(#clip0_6472_5389)">
<path d="M23.9726 23.1037L23.0351 19.8225C22.9489 19.5206 22.673 19.3125 22.3591 19.3125H17.6681V0.703125C17.6681 0.314812 17.3533 0 16.965 0C16.5767 0 16.2619 0.314812 16.2619 0.703125V19.3125H13.5235L14.3248 12.0515C14.467 12.0522 14.6076 12.0529 14.7463 12.0536H14.7498C15.1365 12.0536 15.4509 11.7411 15.4529 11.3539C15.4548 10.9656 15.1415 10.6493 14.7532 10.6473C13.2549 10.6395 2.33757 10.59 0.849286 10.6363C0.632349 10.6431 0.386443 10.6507 0.179865 10.8808C-0.0795417 11.1698 -0.0554949 11.6144 0.23349 11.8738C0.367786 11.9943 0.535646 12.0536 0.702896 12.0536C0.702896 12.0536 0.82524 12.0411 1.12651 12.036L2.37708 23.374C2.41636 23.7303 2.71744 24 3.07594 24H23.2966C23.7627 24 24.101 23.5531 23.9726 23.1037ZM7.72646 15.492C4.35305 15.492 3.08176 13.1836 2.66143 12.0535H12.7914C12.3712 13.1836 11.0999 15.492 7.72646 15.492ZM2.86454 14.9663C3.82486 15.9557 5.36044 16.8982 7.72646 16.8982C10.0925 16.8982 11.6281 15.9557 12.5884 14.9663L12.1088 19.3125H11.571C11.257 19.3125 10.9811 19.5206 10.8949 19.8225L10.1031 22.5938H3.7058L2.86454 14.9663ZM11.5656 22.5938L12.1013 20.7188H21.8287L22.3644 22.5938H11.5656Z" fill="#303030"/>
</g>
<defs>
<clipPath id="clip0_6472_5389">
<rect width="24" height="24" fill="white"/>
</clipPath>
</defs>
</svg>
