<svg width="24" height="24" viewBox="0 0 24 24" fill="none" xmlns="http://www.w3.org/2000/svg">
<g clip-path="url(#clip0_311_6997)">
<path d="M23.2809 14.631L21.0749 12.906C21.1039 12.64 21.1269 12.329 21.1269 12C21.1269 11.671 21.1029 11.36 21.0749 11.094L23.2829 9.36802C23.6929 9.04402 23.8059 8.469 23.5439 7.99003L21.2499 4.02103C20.9989 3.56405 20.4359 3.35503 19.9229 3.54403L17.3199 4.58902C16.8219 4.22902 16.2989 3.92503 15.7579 3.68203L15.3619 0.921047C15.2969 0.396 14.8409 0 14.3019 0H9.70191C9.1629 0 8.7069 0.396 8.64291 0.911016L8.24593 3.68203C7.72191 3.91903 7.20695 4.21805 6.68593 4.59005L4.07593 3.54206C3.57695 3.34706 3.00891 3.55308 2.75893 4.01105L0.461915 7.98605C0.190931 8.44406 0.301931 9.03806 0.721931 9.37003L2.92792 11.094C2.8929 11.4321 2.87593 11.725 2.87593 12C2.87593 12.2751 2.89295 12.568 2.92595 12.906L0.717946 14.6331C0.308915 14.957 0.196884 15.532 0.457884 16.011L2.7519 19.98C3.0009 20.436 3.56288 20.644 4.07888 20.457L6.6819 19.412C7.1799 19.771 7.70391 20.075 8.2449 20.319L8.6409 23.079C8.70591 23.604 9.16191 24 9.70088 24H14.3009C14.8399 24 15.2959 23.604 15.3599 23.089L15.7569 20.319C16.2809 20.082 16.7958 19.783 17.3169 19.411L19.9268 20.459C20.4239 20.652 20.9939 20.448 21.2439 19.99L23.5499 16.001C23.8049 15.533 23.6929 14.958 23.2809 14.631ZM22.6759 15.511L20.2939 19.529L17.4309 18.379C17.2689 18.314 17.0849 18.339 16.9449 18.443C16.3249 18.907 15.7259 19.256 15.1119 19.507C14.9479 19.574 14.8309 19.723 14.8059 19.899L14.3009 23L9.6339 22.947L9.19688 19.9C9.17087 19.724 9.0549 19.575 8.89088 19.508C8.25188 19.246 7.63688 18.889 7.06187 18.447C6.97285 18.378 6.86485 18.3429 6.75685 18.3429C6.69385 18.3429 6.63085 18.354 6.56987 18.3789L3.62485 19.4899L1.33084 15.5209C1.30984 15.4819 1.31382 15.4369 1.33782 15.4179L3.76482 13.521C3.90282 13.413 3.97482 13.239 3.95284 13.065C3.89982 12.6459 3.87582 12.3069 3.87582 12C3.87582 11.693 3.90081 11.355 3.95284 10.935C3.97482 10.76 3.90282 10.587 3.76482 10.479L1.32591 8.49L3.70791 4.47202L6.5709 5.622C6.73388 5.688 6.91688 5.66302 7.05788 5.55802C7.67687 5.09302 8.27687 4.74502 8.89088 4.494C9.0549 4.42598 9.17087 4.27702 9.1959 4.10198L9.70191 0.999984L14.3699 1.05398L14.8059 4.10198C14.8319 4.278 14.9479 4.42697 15.1119 4.494C15.7499 4.755 16.3649 5.112 16.9409 5.55502C17.0819 5.66302 17.2669 5.68903 17.4319 5.622L20.3769 4.51102L22.671 8.48002C22.692 8.51902 22.688 8.56303 22.664 8.58202L20.237 10.479C20.099 10.587 20.027 10.76 20.049 10.935C20.087 11.239 20.126 11.604 20.126 12C20.126 12.397 20.087 12.761 20.049 13.065C20.027 13.239 20.099 13.413 20.237 13.521L22.661 15.417C22.6869 15.438 22.6919 15.483 22.6759 15.511Z" fill="#3CBADE"/>
<path d="M12.0009 7C9.2439 7 7.00089 9.24302 7.00089 12C7.00089 14.757 9.2439 17 12.0009 17C14.7579 17 17.0009 14.757 17.0009 12C17.0009 9.24302 14.7579 7 12.0009 7ZM12.0009 16C9.79492 16 8.00092 14.206 8.00092 12C8.00092 9.79403 9.79492 8.00003 12.0009 8.00003C14.2069 8.00003 16.0009 9.79403 16.0009 12C16.0009 14.206 14.2069 16 12.0009 16Z" fill="#3CBADE"/>
</g>
<defs>
<clipPath id="clip0_311_6997">
<rect width="24" height="24" fill="white"/>
</clipPath>
</defs>
</svg>
