<svg width="24" height="24" viewBox="0 0 24 24" fill="none" xmlns="http://www.w3.org/2000/svg">
<g clip-path="url(#clip0_6224_1925)">
<path d="M12 20.2399C13.9127 20.2399 15.4688 18.6838 15.4688 16.7711V3.45864C15.2776 -1.14425 8.72062 -1.14068 8.53125 3.45864V16.7711C8.53125 18.6838 10.0873 20.2399 12 20.2399ZM10.4062 3.45864C10.494 1.34379 13.5068 1.34543 13.5938 3.45864V16.7711C13.506 18.886 10.4932 18.8844 10.4062 16.7711V3.45864ZM22.125 12.0836V8.14615C22.0372 6.03129 19.0245 6.03293 18.9375 8.14615V16.7711C18.9375 17.65 19.6524 18.3649 20.5312 18.3649C21.4101 18.3649 22.125 17.65 22.125 16.7711C22.125 16.2534 22.5447 15.8336 23.0625 15.8336C23.5803 15.8336 24 16.2534 24 16.7711C23.8094 21.3732 17.2522 21.3713 17.0625 16.7711V8.14615C17.2536 3.54326 23.8106 3.54682 24 8.14615V12.0836C23.9505 13.3275 22.1741 13.3266 22.125 12.0836ZM3.46875 20.2399C5.38144 20.2399 6.9375 18.6838 6.9375 16.7711V14.2399C6.74639 9.637 0.189375 9.64057 0 14.2399V16.7711C0 18.6838 1.55606 20.2399 3.46875 20.2399ZM1.875 14.2399C1.9628 12.125 4.9755 12.1267 5.0625 14.2399V16.7711C4.9747 18.886 1.962 18.8844 1.875 16.7711V14.2399ZM24 23.0524C24 23.5702 23.5803 23.9899 23.0625 23.9899H0.9375C-0.306375 23.9404 -0.305438 22.164 0.9375 22.1149H23.0625C23.5803 22.1149 24 22.5346 24 23.0524Z" fill="#303030"/>
</g>
<defs>
<clipPath id="clip0_6224_1925">
<rect width="24" height="24" fill="white"/>
</clipPath>
</defs>
</svg>
