<svg width="24" height="24" viewBox="0 0 24 24" fill="none" xmlns="http://www.w3.org/2000/svg">
<g clip-path="url(#clip0_6224_1932)">
<path d="M2.483 15.9398C1.43041 13.3985 1.43035 10.5995 2.483 8.05827C3.36738 5.92325 4.90591 4.18524 6.88218 3.05982V7.30784H8.58128V0.851562H2.12494V2.55066H4.60307C0.46861 5.78823 -1.1922 11.5071 0.913206 16.59C1.71558 18.5271 3.01272 20.2237 4.66447 21.4966C6.26581 22.7307 8.16874 23.5469 10.1674 23.8571L10.428 22.178C6.84044 21.6214 3.87042 19.2893 2.483 15.9398Z" fill="#303030"/>
<path d="M23.0803 16.5896C24.3066 13.6291 24.3066 10.3682 23.0803 7.40771C22.2779 5.47063 20.9808 3.77397 19.3291 2.50112C17.7277 1.26701 15.8247 0.450766 13.8261 0.140625L13.5656 1.81967C17.153 2.37635 20.123 4.70841 21.5105 8.05795C22.5631 10.5992 22.5631 13.3982 21.5105 15.9394C20.6261 18.0745 19.0876 19.8125 17.1113 20.9379V16.6899H15.4122V23.1461H21.8685V21.4471H19.3978C21.0092 20.1888 22.2766 18.5298 23.0803 16.5896Z" fill="#303030"/>
</g>
<defs>
<clipPath id="clip0_6224_1932">
<rect width="24" height="24" fill="white"/>
</clipPath>
</defs>
</svg>
